<svg width="24" height="24" viewBox="0 0 24 24" fill="none" xmlns="http://www.w3.org/2000/svg">
<path d="M17.1664 2.88906C17.1293 2.83342 17.0669 2.8 17 2.8H7C6.93313 2.8 6.87068 2.83342 6.83359 2.88906L2.83359 8.88906C2.78655 8.95961 2.78912 9.05216 2.84 9.12L11.84 21.12C11.8778 21.1704 11.937 21.2 12 21.2C12.063 21.2 12.1222 21.1704 12.16 21.12L21.16 9.12C21.2109 9.05216 21.2134 8.95961 21.1664 8.88906L17.1664 2.88906Z" fill="url(#paint0_linear_337_465)" stroke="#1A1B20" stroke-width="0.4" stroke-linecap="round" stroke-linejoin="round"/>
<path fill-rule="evenodd" clip-rule="evenodd" d="M10.1789 2.64208C10.3765 2.74087 10.4566 2.98114 10.3578 3.17873L7.6472 8.59985H16.3528L13.6422 3.17873C13.5434 2.98114 13.6235 2.74087 13.8211 2.64208C14.0187 2.54328 14.259 2.62337 14.3578 2.82096L17.2472 8.59985H21C21.2209 8.59985 21.4 8.77893 21.4 8.99985C21.4 9.22076 21.2209 9.39985 21 9.39985H17.2667L12.3692 21.1537C12.3279 21.2529 12.2512 21.3267 12.1599 21.3665L12.1484 21.3713C12.0998 21.3907 12.0495 21.4 12 21.4C11.9505 21.4 11.9002 21.3907 11.8515 21.3713L11.8401 21.3665C11.7936 21.3463 11.7529 21.3182 11.7188 21.2845C11.6821 21.2483 11.6518 21.2043 11.6308 21.1537L6.73332 9.39985H2.99999C2.77907 9.39985 2.59999 9.22076 2.59999 8.99985C2.59999 8.77893 2.77907 8.59985 2.99999 8.59985H6.75277L9.64222 2.82096C9.74101 2.62337 9.98128 2.54328 10.1789 2.64208ZM7.59999 9.39985L12 19.9598L16.4 9.39985H7.59999Z" fill="#1A1B20"/>
<defs>
<linearGradient id="paint0_linear_337_465" x1="3.01101" y1="3.00025" x2="12.8902" y2="22.5052" gradientUnits="userSpaceOnUse">
<stop stop-color="#8CE1FE"/>
<stop offset="1" stop-color="#14214B"/>
</linearGradient>
</defs>
</svg>
