<svg width="88" height="88" viewBox="0 0 88 88" fill="none" xmlns="http://www.w3.org/2000/svg">
<path d="M59.3763 71.0123L26.3462 86.7207L29.9437 69.0976L36.1952 60.2768L48.6636 63.8892L59.3763 71.0123Z" fill="#0093AE"/>
<path d="M21.0054 53.2447L26.3462 86.7207L36.1952 60.2768L63.2104 35.3769L83.9519 1.94592L42.3442 31.5088L21.0054 53.2447Z" fill="#00C8DE"/>
<mask id="mask0_344_9" style="mask-type:luminance" maskUnits="userSpaceOnUse" x="0" y="0" width="88" height="88">
<path d="M0.666626 0.666626H88V88H0.666626V0.666626Z" fill="white"/>
</mask>
<g mask="url(#mask0_344_9)">
<path d="M83.952 1.9459L76.6823 75.3331C76.5123 77.0608 74.6894 78.1015 73.1143 77.3729L59.3763 71.0123L36.1951 60.2767L83.952 1.9459Z" fill="#B3E8F0"/>
<path d="M83.952 1.94583L21.0054 53.2446L6.17628 46.3774C4.26996 45.4945 4.21623 42.8042 6.08605 41.8449L83.952 1.94583Z" fill="#B3E8F0"/>
<path d="M5.99012 44.1151C5.9804 43.6288 6.23302 43.2058 6.66542 42.984L73.7492 8.60963L34.245 40.8039C33.7045 41.2445 33.6207 42.0633 34.0615 42.604C34.4924 43.1328 35.3326 43.2184 35.8617 42.7875L74.9265 10.9513C74.9265 10.9513 35.2217 59.4472 35.2043 59.4685C35.1161 59.5762 35.0443 59.702 34.9954 59.8325L26.8418 81.7239L22.3825 53.7724L31.9619 45.9656C32.5096 45.5192 32.5918 44.7133 32.1454 44.1654C31.6991 43.6177 30.8931 43.5356 30.3454 43.982L20.8146 51.7491L6.70994 45.2172C6.26901 45.013 5.99984 44.601 5.99012 44.1151ZM56.3666 71.031L28.6446 84.2149L36.9109 62.0208L56.3666 71.031ZM25.0808 86.9272C25.2123 87.7518 26.1411 88.2386 26.8938 87.8812L59.3853 72.4288C59.3853 72.4288 72.5764 78.5364 72.5803 78.5383C74.9158 79.6195 77.7081 78.0153 77.959 75.463L82.5344 29.2739C82.6042 28.5708 82.0906 27.9443 81.3873 27.8747C80.6834 27.8047 80.0577 28.3187 79.9881 29.0218C79.9881 29.0218 75.4188 75.1479 75.4125 75.2116C75.3296 76.0496 74.4204 76.57 73.6549 76.2159L38.2303 59.8119L82.2659 6.02596L80.4647 24.2106C80.3951 24.9137 80.9085 25.5402 81.6116 25.6098C82.3163 25.6796 82.9414 25.166 83.011 24.4627C83.011 24.4627 85.2267 2.09579 85.2295 2.06799C85.3272 1.08122 84.2543 0.352197 83.3728 0.803192L5.49819 40.7069C4.19399 41.3759 3.40236 42.7015 3.4317 44.1666C3.46121 45.6313 4.30537 46.9236 5.63465 47.5392L19.8468 54.1209C19.8468 54.1209 25.0786 86.9132 25.0808 86.9272Z" fill="black"/>
</g>
</svg>
