<svg width="112" height="129" viewBox="0 0 112 129" fill="none" xmlns="http://www.w3.org/2000/svg">
<path d="M95.9725 122.805L84.7796 120.348L76.5919 129L71.809 113.244L69.6094 106.007L66.5128 95.9694L65.9725 94.1947L66.5128 94.0174L85.3526 88L90.4708 104.843L91.2327 107.349L95.9725 122.805Z" fill="white"/>
<path d="M46.9725 94.1309L46.4183 95.8872L41.0299 113.028L40.7083 114.022L35.8465 129L27.4479 120.432L15.9725 122.869L20.696 108.352L21.4829 105.854L27.0986 88L46.4183 93.9553L46.9725 94.1309Z" fill="white"/>
<path d="M60.8236 5.6832C58.7364 1.87312 53.2636 1.87312 51.1764 5.6832L45.0733 16.8241C44.4378 17.9841 43.0088 18.4484 41.8129 17.8834L30.3269 12.4576C26.3988 10.602 21.9712 13.8189 22.5221 18.1281L24.1331 30.7286C24.3008 32.0406 23.4176 33.2561 22.118 33.502L9.63647 35.8637C5.36788 36.6714 3.67667 41.8764 6.65529 45.0388L15.3649 54.2859C16.2718 55.2487 16.2718 56.7513 15.3649 57.7141L6.65529 66.9612C3.67667 70.1236 5.36789 75.3286 9.63647 76.1363L22.118 78.498C23.4176 78.7439 24.3008 79.9594 24.1331 81.2714L22.5221 93.8719C21.9712 98.1811 26.3988 101.398 30.3269 99.5424L41.8129 94.1166C43.0088 93.5516 44.4378 94.0159 45.0733 95.1759L51.1764 106.317C53.2636 110.127 58.7364 110.127 60.8236 106.317L66.9267 95.1759C67.5622 94.0159 68.9912 93.5516 70.1871 94.1166L81.6731 99.5424C85.6012 101.398 90.0288 98.1811 89.4779 93.8719L87.8669 81.2714C87.6992 79.9594 88.5824 78.7439 89.882 78.498L102.364 76.1363C106.632 75.3286 108.323 70.1236 105.345 66.9612L96.6351 57.7141C95.7282 56.7513 95.7282 55.2487 96.6351 54.2859L105.345 45.0388C108.323 41.8764 106.632 36.6714 102.364 35.8637L89.882 33.502C88.5824 33.2561 87.6992 32.0406 87.8669 30.7286L89.4779 18.1281C90.0288 13.8189 85.6012 10.602 81.6731 12.4576L70.1871 17.8834C68.9912 18.4484 67.5622 17.9841 66.9267 16.8241L60.8236 5.6832Z" fill="url(#paint0_linear_336_463)" stroke="white" stroke-width="3"/>
<defs>
<linearGradient id="paint0_linear_336_463" x1="0.068494" y1="0.00156393" x2="61.539" y2="121.366" gradientUnits="userSpaceOnUse">
<stop stop-color="#8CE1FE"/>
<stop offset="1" stop-color="#14214B"/>
</linearGradient>
</defs>
</svg>
